Coordinates
nRows=12
nColumns=24

# SIMM Motion File Header:
name Coordinates
datacolumns 24
datarows 12
otherdata 1
range 0.59067000000000003000 0.60167000000000004000
endheader
time	pelvis_tx	pelvis_ty	pelvis_tz	pelvis_tilt	pelvis_list	pelvis_rotation	hip_flexion_r	hip_adduction_r	hip_rotation_r	knee_angle_r	ankle_angle_r	subtalar_angle_r	mtp_angle_r	hip_flexion_l	hip_adduction_l	hip_rotation_l	knee_angle_l	ankle_angle_l	subtalar_angle_l	mtp_angle_l	lumbar_extension	lumbar_bending	lumbar_rotation
      0.59067000000000003000	     -1.93779239165292780000	      0.96138645520904176000	      0.18996227937681592000	      4.22086811766526360000	     -1.82476635701872650000	      1.12964059272814920000	     15.55096008244780700000	      0.96421604979134468000	      2.26584986169274010000	    -17.99499775952455500000	      7.89842384166537140000	     -0.00000000000000473263	     -0.00000000000002736761	     -9.71737381743226440000	     -1.73401364341427850000	      7.87937946981395500000	     -6.27935749435374910000	     10.90681719800086700000	     -0.00000000000002749895	     -0.00000000000008165686	    -10.81287754091191300000	     -2.12352744852412730000	      4.55130128307516380000
      0.59167000000000003000	     -1.93714788455909010000	      0.96129722882644308000	      0.18992348842408285000	      4.23148063765485280000	     -1.83055753270551720000	      1.14914408664272670000	     15.57944889622883100000	      0.96892172048372605000	      2.24711305310223030000	    -17.87659220409374700000	      7.79738658221937000000	     -0.00000000000000473901	     -0.00000000000002756890	     -9.76473350488344670000	     -1.74402451441007920000	      7.89636920414269290000	     -6.28874915311087610000	     10.93426169158826900000	     -0.00000000000002723671	     -0.00000000000008277291	    -10.82561668489779700000	     -2.10487358558391250000	      4.53104598230084840000
      0.59267000000000003000	     -1.93650337746525270000	      0.96120800244384441000	      0.18988469747134978000	      4.24209315764444120000	     -1.83634870839230820000	      1.16864758055730440000	     15.60793771000985700000	      0.97362739117610742000	      2.22837624451172010000	    -17.75818664866293900000	      7.69634932277336770000	     -0.00000000000000474538	     -0.00000000000002777020	     -9.81209319233463080000	     -1.75403538540587990000	      7.91335893847143090000	     -6.29814081186800400000	     10.96170618517567000000	     -0.00000000000002697447	     -0.00000000000008388896	    -10.83835582888368000000	     -2.08621972264369710000	      4.51079068152653310000
      0.59367000000000003000	     -1.93585779017517390000	      0.96111827231311098000	      0.18984514804841254000	      4.25278783319332820000	     -1.84205036835345280000	      1.18851425588267730000	     15.63579366727103300000	      0.97798993552003188000	      2.20973922814806970000	    -17.63979362810417900000	      7.59509012158327580000	     -0.00000000000000475041	     -0.00000000000002797623	     -9.85942007839203780000	     -1.76401632727342790000	      7.93000662841898500000	     -6.30797828113954930000	     10.99145405004682100000	     -0.00000000000002669868	     -0.00000000000008502033	    -10.85107243690610100000	     -2.06739264033461900000	      4.49004377568036970000
      0.59467000000000003000	     -1.93521112268885380000	      0.96102803843424289000	      0.18980484015527119000	      4.26356466430151390000	     -1.84766251258895120000	      1.20874411261884470000	     15.66301676801236200000	      0.98200935351549978000	      2.19120200401127810000	    -17.52141314241746900000	      7.49360897864909510000	     -0.00000000000000475410	     -0.00000000000002818700	     -9.90671416305566770000	     -1.77396734001272360000	      7.94631227398535600000	     -6.31826156092551370000	     11.02350528620171800000	     -0.00000000000002640932	     -0.00000000000008616702	    -10.86376650896505900000	     -2.04839233865667850000	      4.46880526476236020000
      0.59567000000000003000	     -1.93456445520253360000	      0.96093780455537481000	      0.18976453226212983000	      4.27434149540969880000	     -1.85327465682444960000	      1.22897396935501260000	     15.69023986875368900000	      0.98602877151096746000	      2.17266477987448740000	    -17.40303265673075800000	      7.39212783571491450000	     -0.00000000000000475780	     -0.00000000000002839777	     -9.95400824771929930000	     -1.78391835275201950000	      7.96261791955172700000	     -6.32854484071147820000	     11.05555652235661900000	     -0.00000000000002611996	     -0.00000000000008731371	    -10.87646058102401600000	     -2.02939203697873790000	      4.44756675384434970000
      0.59667000000000003000	     -1.93391579943508730000	      0.96084661577031893000	      0.18972291450335516000	      4.28527031913654800000	     -1.85875246453751090000	      1.24979983442867630000	     15.71632591523499700000	      0.98947158502266885000	      2.15433704318847050000	    -17.28470439141556300000	      7.29039490113383430000	     -0.00000000000000476234	     -0.00000000000002859487	    -10.00127354204621400000	     -1.79382212323602900000	      7.97827483113847260000	     -6.33966836781572240000	     11.09458766279585800000	     -0.00000000000002585389	     -0.00000000000008842488	    -10.88910639886040600000	     -2.01005829021480630000	      4.42553424476075200000
      0.59767000000000003000	     -1.93326714366764100000	      0.96075542698526306000	      0.18968129674458045000	      4.29619914286339720000	     -1.86423027225057210000	      1.27062569950233970000	     15.74241196171630400000	      0.99291439853437025000	      2.13600930650245370000	    -17.16637612610036400000	      7.18866196655275400000	     -0.00000000000000476688	     -0.00000000000002879197	    -10.04853883637312800000	     -1.80372589372003840000	      7.99393174272521900000	     -6.35079189491996580000	     11.13361880323509600000	     -0.00000000000002558782	     -0.00000000000008953606	    -10.90175221669679600000	     -1.99072454345087490000	      4.40350173567715420000
      0.59867000000000004000	     -1.93261643517905650000	      0.96066333850025332000	      0.18963844712090422000	      4.30732636213901370000	     -1.86956314938571060000	      1.29198316831932190000	     15.76731045540975800000	      0.99578778365370679000	      2.11793767205708770000	    -17.04812002939650700000	      7.08682931731566160000	     -0.00000000000000477661	     -0.00000000000002896057	    -10.09589666706816800000	     -1.81356637600632410000	      8.00884611430821640000	     -6.36261707717226430000	     11.18036224397070600000	     -0.00000000000002529417	     -0.00000000000009068066	    -10.91438910393551600000	     -1.97108181713666240000	      4.38076728447397730000
      0.59967000000000004000	     -1.93196572669047220000	      0.96057125001524357000	      0.18959559749722799000	      4.31845358141463010000	     -1.87489602652084900000	      1.31334063713630410000	     15.79220894910321100000	      0.99866116877304312000	      2.09986603761172170000	    -16.92986393269264800000	      6.98499666807856820000	     -0.00000000000000478634	     -0.00000000000002912917	    -10.14325449776320700000	     -1.82340685829260970000	      8.02376048589121460000	     -6.37444225942456380000	     11.22710568470631600000	     -0.00000000000002500052	     -0.00000000000009182527	    -10.92702599117423600000	     -1.95143909082244970000	      4.35803283327080050000
      0.60067000000000004000	     -1.93131383605359220000	      0.96047872559131209000	      0.18955212081315131000	      4.32971625974733240000	     -1.88011185572840110000	      1.33495259436446620000	     15.81641993991334500000	      1.00119149404162620000	      2.08196240139129300000	    -16.81166191808115700000	      6.88320261242498170000	     -0.00000000000000479753	     -0.00000000000002928982	    -10.19075184278481700000	     -1.83318069212642550000	      8.03817738491018830000	     -6.38648119812882520000	     11.27709753482532300000	     -0.00000000000002469354	     -0.00000000000009301982	    -10.93967954229291100000	     -1.93167600790786990000	      4.33496092792345420000
      0.60167000000000004000	     -1.93066076326841650000	      0.96038576522845887000	      0.18950801706867421000	      4.34111439713712150000	     -1.88521063700836680000	      1.35681904000380830000	     15.83994342784016100000	      1.00337875945945630000	      2.06422676339580050000	    -16.69351398556203100000	      6.78144715035490100000	     -0.00000000000000481019	     -0.00000000000002944251	    -10.23838870213299400000	     -1.84288787750777170000	      8.05209681136513570000	     -6.39873389328505040000	     11.33033779432772500000	     -0.00000000000002437323	     -0.00000000000009426433	    -10.95234975729153800000	     -1.91179256839292240000	      4.31155156843193850000
